# xmcd
#
# Track frame offsets:
#	150
#	17665
#	33365
#	48333
#	59003
#	70963
#	88440
#	106190
#	122710
#	138475
#	151880
#	164023
#	175360
#	188208
#	209868
#	222723
#	235765
#	253428
#	267168
#	280873
#
# Disc length: 3954 seconds
#
# Revision: 0
# Processed by: cddbd v1.5.1PL0 Copyright (c) Steve Scherf et al.
# Submitted via: dBpowerAMP V4.0
#
DISCID=400f7014
DTITLE=Various Artist - Ta klasika
DYEAR=1900
DGENRE=Ethnic
TTITLE0=Eimai antos xoris ftera
TTITLE1=To Pelogo einai bathi
TTITLE2=Ta paidia tou Peiraia
TTITLE3=Kame ton pono sou xara
TTITLE4=Odos Oneirov
TTITLE5=Braxo braxo ton kanmo mou
TTITLE6=Se potisa Rodostamo
TTITLE7=Drapetsona
TTITLE8=Ena to xelidovi
TTITLE9=To gelasto paidi
TTITLE10=Poios plnrovei to barkarn
TTITLE11=Zabarakatranaimia
TTITLE12=Milo gia ta paidia mou
TTITLE13=Ta logia kai ta xronia ta xamena
TTITLE14=Tragoudo tragoudo
TTITLE15=Ta traina pou figav
TTITLE16=Stou Othona ta xronia
TTITLE17=Bale kai allo piato sto trapezi
TTITLE18=Apovn zon
TTITLE19=Oneiro demeno
EXTD=Kataigidas
EXTT0=
EXTT1=
EXTT2=
EXTT3=
EXTT4=
EXTT5=
EXTT6=
EXTT7=
EXTT8=
EXTT9=
EXTT10=
EXTT11=
EXTT12=
EXTT13=
EXTT14=
EXTT15=
EXTT16=
EXTT17=
EXTT18=
EXTT19=
PLAYORDER=
